<?xml version="1.0" encoding="utf-8"?>
<!-- Generator: Adobe Illustrator 22.0.0, SVG Export Plug-In . SVG Version: 6.00 Build 0)  -->
<svg version="1.1" xmlns="http://www.w3.org/2000/svg" xmlns:xlink="http://www.w3.org/1999/xlink" x="0px" y="0px"
	 viewBox="0 0 830.7 500" style="enable-background:new 0 0 830.7 500;" xml:space="preserve">
<style type="text/css">
	.st0{fill:#E8485F;}
	.st1{fill:#2A363B;}
	.st2{fill:#E8495F;}
</style>
<g id="O">
	<g>
		<g>
			<path class="st0" d="M412,324.1c-28.6-17.2-46.9-51.1-46.9-95.3c0-62.2,37.4-104.3,90.7-104.3c15.4,0,30,3.4,42.8,10l5.5-12
				c-14.3-7-30.5-10.5-47.5-10.5c-60.7,0-103.3,47-103.3,116.6c0,49.6,20.9,87.5,53.6,106.7L412,324.1z"/>
		</g>
		<g>
			<path class="st0" d="M417.8,311.5l3.9-8.6c-19.2-15.4-28.8-43.4-28.8-73.5c0-43.9,23.3-83.2,64.4-83.2c12.2,0,22.8,3.4,31.7,9.3
				l4.4-9.6c-9.9-6.2-21.7-9.7-35.1-9.7c-46.7,0-73.3,44-73.3,93.1C385,262.9,396,294.3,417.8,311.5z"/>
		</g>
	</g>
	<g>
		<path class="st1" d="M497.1,158.4l-4.4,9.7c19,15,29.3,42.4,29.3,73.4c0,40.9-20.9,83.5-64.3,83.5c-12.6,0-23.4-3.5-32.3-9.5
			l-3.9,8.6c10.3,7,22.7,11,37.3,11c49.4,0,73.3-47.7,73.3-93.4C532,206.2,519.7,174.9,497.1,158.4z"/>
		<path class="st1" d="M508,134.5l-5.5,12.1c28,16.3,47,48.7,47,96.2c0,61-35.6,104-90.7,104c-15.7,0-30.3-3.6-43-10.4l-5.1,11.2
			c14.5,7.7,31.2,11.8,49.3,11.8c62.7,0,103.3-48.1,103.3-116.3C563.4,189,540.9,152.3,508,134.5z"/>
	</g>
</g>
<g id="N">
	<path class="st2" d="M357.5,146.5l-29.8,61c-16.7,34.1-29.2,61-41,91.6l-0.8,0c4.6-38.1-22.2-42.8-40.2-71
		c-0.1-0.2-0.1-0.2-0.1-0.2l0,0c0.6,1.3,1,2.6,1.2,4l15.1,94.5c0.8,4.8,3.8,8.8,8.1,11l8.4,4.1c7.4,3.6,16.2,0.6,19.9-6.8l101-205.6
		L357.5,146.5z"/>
	<path class="st1" d="M242.5,219.9c0.6,0.8,1.1,1.6,1.5,2.5l0,0c0,0,0,0,0,0l-37-91.9c-1.4-2.8-3.6-5.1-6.4-6.5l-13.1-6.8
		c-7.3-3.8-16.2-1-20,6.3L77.5,295l10,45l48.4-92.3c18.8-35.9,31.8-62.2,44.4-90.3l1.1,0.2C180.2,185.5,223.9,195.3,242.5,219.9z"/>
</g>
<g id="A">
	<path class="st2" d="M634.2,108.8V136h0.2c3.5,13.8,7,27.9,12.4,43.4l23.3,68.5h-30.9c-2.7,0-4.9,2.2-4.9,4.9V267
		c0,2.7,2.2,4.9,4.9,4.9h37.3l25.4,74.8h32.9l-81.2-238H634.2z"/>
	<path class="st1" d="M629.8,94.9V122h-0.2c-3.5,13.8-7,27.9-12.4,43.4L594,234h30.9c2.7,0,4.9,2.2,4.9,4.9v14.2
		c0,2.7-2.2,4.9-4.9,4.9h-37.3l-25.4,74.8h-32.9l81.2-238H629.8z"/>
</g>
</svg>
